PathFileType	4	(X/Y/Z)	/tmp/tmp6q9gruk8//results/MarkerData/Run_5.trc
DataRate	CameraRate	NumFrames	NumMarkers	Units	OrigDataRate	OrigDataStartFrame	OrigNumFrames
100	100	8	42	m	100	196	393
Frame#	Time	C7			CLAV			LACR			LASI			LCAL			LFAradius			LFAsuperior			LFAulna			LLEL			LMEL			LMT5			LPSI			LTB1			LTB2			LTB3			LTH1			LTH2			LTH3			LTOE			LUA1			LUA2			LUA3			RACR			RASI			RCAL			RFAradius			RFAsuperior			RFAulna			RLEL			RMEL			RMT5			RPSI			RTB1			RTB2			RTB3			RTH1			RTH2			RTH3			RTOE			RUA1			RUA2			RUA3		
		X1	Y1	Z1	X2	Y2	Z2	X3	Y3	Z3	X4	Y4	Z4	X5	Y5	Z5	X6	Y6	Z6	X7	Y7	Z7	X8	Y8	Z8	X9	Y9	Z9	X10	Y10	Z10	X11	Y11	Z11	X12	Y12	Z12	X13	Y13	Z13	X14	Y14	Z14	X15	Y15	Z15	X16	Y16	Z16	X17	Y17	Z17	X18	Y18	Z18	X19	Y19	Z19	X20	Y20	Z20	X21	Y21	Z21	X22	Y22	Z22	X23	Y23	Z23	X24	Y24	Z24	X25	Y25	Z25	X26	Y26	Z26	X27	Y27	Z27	X28	Y28	Z28	X29	Y29	Z29	X30	Y30	Z30	X31	Y31	Z31	X32	Y32	Z32	X33	Y33	Z33	X34	Y34	Z34	X35	Y35	Z35	X36	Y36	Z36	X37	Y37	Z37	X38	Y38	Z38	X39	Y39	Z39	X40	Y40	Z40	X41	Y41	Z41	X42	Y42	Z42

197	2.13	0.963357	1.51049	-0.348493	1.09083	1.44202	-0.337374	0.990903	1.49691	-0.514334	1.04807	0.992966	-0.433272	1.06393	0.0957803	-0.305699	0.948555	1.14747	-0.568714	0.77226	1.20658	-0.620988	0.915131	1.09391	-0.602701	0.727713	1.27699	-0.609554	0.726619	1.25303	-0.522797	1.24792	0.0291487	-0.398772	0.882147	1.06429	-0.397886	1.21143	0.426318	-0.413376	1.12335	0.310251	-0.434233	1.18773	0.213606	-0.366143	0.987808	0.8852	-0.535195	0.984354	0.722174	-0.481668	1.08961	0.621187	-0.486301	1.29971	0.0799269	-0.316672	0.864443	1.44432	-0.546471	0.863475	1.36568	-0.587219	0.769636	1.3339	-0.592094	1.05847	1.46909	-0.199255	1.06548	0.990475	-0.237895	0.496198	0.668791	-0.279325	1.12498	1.07849	-0.151331	1.00098	1.13278	-0.0258431	1.11307	1.03835	-0.096694	0.912965	1.19687	-0.00467484	0.892612	1.16692	-0.0889742	0.375938	0.501908	-0.226168	0.898541	1.05512	-0.284319	0.75668	0.4485	-0.278767	0.729541	0.543143	-0.218996	0.579535	0.521426	-0.285925	0.976095	0.872399	-0.192894	0.893524	0.740549	-0.210746	0.906754	0.581892	-0.215088	0.393802	0.451293	-0.31732	0.957538	1.38065	-0.118542	1.00292	1.31976	-0.094109	0.942973	1.25104	-0.0393149
198	2.14	0.963043	1.50387	-0.351135	1.09111	1.43616	-0.336087	0.992844	1.48762	-0.516619	1.04469	0.988554	-0.432409	1.01633	0.0987538	-0.298795	0.960167	1.13048	-0.56681	0.783508	1.18549	-0.623086	0.928113	1.07571	-0.599832	0.737787	1.25625	-0.613754	0.736171	1.23362	-0.526485	1.1964	0.0325812	-0.396317	0.878772	1.05971	-0.39675	1.2004	0.421033	-0.407448	1.10355	0.312872	-0.431217	1.15509	0.211395	-0.358289	0.981353	0.880295	-0.53707	0.981439	0.718106	-0.482887	1.08723	0.61724	-0.487344	1.25275	0.0752557	-0.310908	0.868684	1.42776	-0.552881	0.870951	1.34853	-0.589584	0.777806	1.31376	-0.595949	1.0553	1.4633	-0.198017	1.06356	0.983173	-0.239299	0.52641	0.671585	-0.282003	1.11082	1.05467	-0.13969	0.986926	1.12153	-0.0208622	1.09466	1.01814	-0.083975	0.902548	1.19281	-0.00520465	0.883144	1.16204	-0.0887804	0.410926	0.505533	-0.217501	0.896719	1.04925	-0.283603	0.783483	0.44307	-0.273147	0.75838	0.538482	-0.213313	0.609058	0.521046	-0.282902	0.979141	0.865061	-0.191909	0.903077	0.729884	-0.207157	0.926233	0.571463	-0.210275	0.426763	0.450738	-0.306846	0.952034	1.37419	-0.12047	0.996723	1.31333	-0.0935439	0.934647	1.24514	-0.0401888
199	2.15	0.963621	1.4996	-0.353276	1.0914	1.43131	-0.334857	0.994526	1.48005	-0.518192	1.0414	0.985191	-0.432022	0.968897	0.101117	-0.296105	0.973567	1.11339	-0.564289	0.797029	1.16433	-0.625415	0.942807	1.05764	-0.596585	0.750129	1.23551	-0.618517	0.74745	1.2141	-0.530866	1.14703	0.0352938	-0.395368	0.875496	1.05618	-0.39609	1.18463	0.41437	-0.401524	1.08005	0.31439	-0.428739	1.11953	0.208915	-0.353794	0.976151	0.876722	-0.538562	0.977379	0.714827	-0.482491	1.0815	0.612753	-0.485716	1.20564	0.0743972	-0.308992	0.874001	1.41157	-0.558721	0.879662	1.33218	-0.591233	0.787734	1.29369	-0.600149	1.0527	1.45864	-0.196694	1.06024	0.977343	-0.240737	0.555484	0.669689	-0.283246	1.09494	1.03523	-0.128428	0.971749	1.11291	-0.016691	1.07455	1.00193	-0.072312	0.891021	1.19025	-0.00615419	0.873428	1.15826	-0.0888688	0.448116	0.502598	-0.208979	0.894104	1.04487	-0.283346	0.81368	0.438275	-0.269235	0.788291	0.533251	-0.206847	0.640355	0.517851	-0.280098	0.980333	0.859758	-0.19253	0.913524	0.720525	-0.203556	0.947812	0.563527	-0.206244	0.461992	0.445121	-0.29733	0.947172	1.36929	-0.121721	0.990428	1.30823	-0.0931563	0.925116	1.24119	-0.0409947
200	2.16	0.964504	1.49718	-0.354147	1.0913	1.42744	-0.333681	0.995738	1.47455	-0.518992	1.03916	0.98302	-0.43284	0.922313	0.102737	-0.296508	0.989173	1.09744	-0.561153	0.813566	1.14462	-0.627766	0.959705	1.04093	-0.593135	0.765145	1.21581	-0.623395	0.760592	1.1953	-0.535532	1.09988	0.0359812	-0.395954	0.873274	1.05384	-0.396635	1.16349	0.404905	-0.396362	1.05278	0.312388	-0.426361	1.08167	0.204411	-0.35157	0.973499	0.87416	-0.538821	0.970837	0.711951	-0.480758	1.07132	0.606988	-0.481902	1.15927	0.0736659	-0.30906	0.879704	1.39738	-0.562325	0.889278	1.31821	-0.592203	0.799594	1.27497	-0.60427	1.05054	1.45497	-0.195642	1.05597	0.973726	-0.241716	0.582491	0.663403	-0.282893	1.07859	1.02145	-0.11803	0.955867	1.10846	-0.0133554	1.05341	0.990714	-0.0623527	0.878213	1.1902	-0.00749335	0.863438	1.15656	-0.0897081	0.486833	0.493124	-0.200967	0.890777	1.04211	-0.284093	0.846726	0.434425	-0.266879	0.819167	0.528139	-0.200697	0.672909	0.51228	-0.277533	0.979904	0.856802	-0.194247	0.924775	0.713277	-0.200881	0.971404	0.559186	-0.203028	0.499187	0.434498	-0.289168	0.942619	1.36661	-0.122219	0.983646	1.30512	-0.09298	0.914114	1.24018	-0.0418967
201	2.17	0.964809	1.49571	-0.35391	1.09059	1.42467	-0.332368	0.996764	1.47111	-0.519284	1.03803	0.98243	-0.434835	0.876778	0.104017	-0.297598	1.00689	1.08445	-0.557412	0.833086	1.12816	-0.629838	0.979131	1.02725	-0.589544	0.78245	1.19842	-0.627751	0.775124	1.17843	-0.539781	1.05408	0.0357404	-0.396905	0.872154	1.05308	-0.398357	1.13812	0.393997	-0.39164	1.02294	0.307851	-0.423657	1.04266	0.19887	-0.349541	0.972906	0.872478	-0.538115	0.961697	0.70992	-0.479251	1.0577	0.600724	-0.477731	1.11372	0.0721503	-0.308862	0.885157	1.38631	-0.563113	0.899381	1.30767	-0.592814	0.813161	1.25888	-0.60786	1.04828	1.45258	-0.194849	1.05136	0.972244	-0.241705	0.607013	0.652876	-0.281043	1.06275	1.01397	-0.108691	0.939499	1.10855	-0.0108637	1.03209	0.985035	-0.0545915	0.864365	1.19326	-0.00916141	0.852577	1.15812	-0.0912719	0.526097	0.477753	-0.1938	0.886897	1.04078	-0.285777	0.881639	0.431879	-0.265695	0.850693	0.523571	-0.195902	0.705834	0.504797	-0.275137	0.978297	0.855684	-0.19541	0.936542	0.708827	-0.199342	0.996714	0.559129	-0.200507	0.538158	0.419179	-0.282374	0.937535	1.36645	-0.122537	0.975941	1.3046	-0.0928995	0.901919	1.24256	-0.0431131
202	2.18	0.96415	1.49492	-0.353597	1.08925	1.4233	-0.330707	0.998266	1.4695	-0.519421	1.03739	0.983574	-0.437349	0.832534	0.10558	-0.297693	1.02593	1.07654	-0.55316	0.854281	1.11632	-0.631254	1.00078	1.01858	-0.585826	0.800677	1.18455	-0.631029	0.79001	1.16479	-0.542936	1.00912	0.035884	-0.397261	0.871531	1.05405	-0.400599	1.11021	0.38413	-0.386979	0.991689	0.303604	-0.420746	1.00366	0.194376	-0.346893	0.972665	0.871636	-0.537321	0.950927	0.709274	-0.47921	1.04222	0.59526	-0.474634	1.06911	0.0706688	-0.307727	0.890406	1.37866	-0.56237	0.909648	1.30066	-0.593275	0.827601	1.24635	-0.610589	1.04527	1.45207	-0.194082	1.04687	0.972258	-0.240382	0.629138	0.638111	-0.277975	1.04779	1.01265	-0.100323	0.922681	1.11244	-0.00917571	1.01139	0.98481	-0.0491445	0.849908	1.19941	-0.0111113	0.840336	1.16357	-0.0932092	0.565078	0.457501	-0.187656	0.882823	1.0407	-0.287855	0.917445	0.431174	-0.265132	0.882293	0.520124	-0.192894	0.738254	0.495695	-0.272743	0.975667	0.855699	-0.194863	0.948415	0.707696	-0.198675	1.02305	0.563677	-0.198725	0.578811	0.399777	-0.276745	0.931157	1.36876	-0.123452	0.967056	1.30699	-0.0927319	0.889112	1.24807	-0.0446887
203	2.19	0.962915	1.49533	-0.354204	1.08752	1.4236	-0.328668	1.00086	1.46948	-0.519618	1.03673	0.986103	-0.439741	0.789742	0.107978	-0.296797	1.04503	1.07547	-0.548658	0.875088	1.10953	-0.6317	1.02356	1.01662	-0.582086	0.818055	1.17488	-0.633025	0.804266	1.15526	-0.544736	0.965032	0.0366495	-0.396948	0.870875	1.05641	-0.402719	1.08093	0.376715	-0.382743	0.959446	0.301548	-0.41819	0.96525	0.192043	-0.344328	0.971396	0.871518	-0.536939	0.939571	0.709966	-0.480501	1.02552	0.591282	-0.472727	1.02565	0.0699089	-0.306366	0.896151	1.37415	-0.562356	0.919862	1.29659	-0.593506	0.841669	1.23779	-0.612357	1.04111	1.45385	-0.193225	1.04276	0.973172	-0.237995	0.649374	0.619062	-0.274113	1.03354	1.01669	-0.0928418	0.905553	1.11925	-0.00820468	0.991876	0.989397	-0.045591	0.835132	1.20812	-0.0133546	0.826873	1.17247	-0.095333	0.603769	0.433393	-0.182578	0.879107	1.04191	-0.289847	0.953427	0.432874	-0.264478	0.913247	0.518541	-0.191486	0.770073	0.48516	-0.270287	0.972438	0.856732	-0.192883	0.960121	0.710055	-0.198692	1.04929	0.572811	-0.197862	0.621147	0.377159	-0.272208	0.923324	1.37326	-0.125408	0.957045	1.31219	-0.0924218	0.876134	1.25601	-0.0464996
204	2.2	0.961778	1.49755	-0.35588	1.08566	1.42571	-0.326411	1.00465	1.47095	-0.51989	1.03607	0.989478	-0.441859	0.748212	0.111739	-0.296065	1.06301	1.08186	-0.544261	0.893896	1.10739	-0.631078	1.04595	1.02201	-0.578433	0.833359	1.16934	-0.633927	0.817557	1.14983	-0.54544	0.921826	0.037533	-0.39643	0.870234	1.05962	-0.404563	1.05072	0.371624	-0.379696	0.926348	0.301662	-0.416497	0.927347	0.191662	-0.34278	0.969	0.871994	-0.536706	0.928053	0.711624	-0.482041	1.00744	0.588779	-0.47134	0.983301	0.0697081	-0.30555	0.902948	1.37245	-0.564441	0.929776	1.29491	-0.593323	0.854297	1.23308	-0.613277	1.03584	1.45784	-0.192397	1.03926	0.974899	-0.235435	0.668585	0.595762	-0.270008	1.01954	1.02488	-0.0864146	0.888489	1.12857	-0.00789556	0.973853	0.997828	-0.0431294	0.8201	1.21876	-0.0159607	0.812896	1.1836	-0.0977914	0.643125	0.406297	-0.178585	0.87628	1.04454	-0.291679	0.989046	0.437206	-0.263251	0.942856	0.51918	-0.191282	0.802286	0.473554	-0.268034	0.969997	0.859526	-0.190612	0.971663	0.715631	-0.199445	1.07413	0.586106	-0.197968	0.665309	0.352304	-0.268883	0.914512	1.37964	-0.128348	0.946229	1.31967	-0.092127	0.863098	1.2657	-0.0484544
